<?xml version="1.0" encoding="utf-8" ?>
<svg xmlns="http://www.w3.org/2000/svg" xmlns:xlink="http://www.w3.org/1999/xlink" width="1024" height="1024">
	<path transform="scale(1.6 1.6)" d="M163.73 305.469L163.821 485.697C163.835 512.503 169.449 514.561 192.135 514.669L316.25 515.673C323.962 515.841 324.287 527.885 316.558 528.901C311.975 529.504 306.633 528.948 301.991 528.9L186.382 527.932C182.968 527.875 179.42 528.007 176.035 527.58C152.849 524.66 151.023 501.4 150.569 483.441L150.91 332.852L149.519 167.111C149.091 151.194 146.637 132.777 157.424 119.467C171.189 102.484 194.86 102.632 214.748 101.761L222.594 101.567C225.188 101.52 225.551 101.646 227.606 100.066L231.719 97.1698C237.714 93.2601 244.73 90.9753 251.691 89.5312C260.374 87.73 260.621 88.1481 266.881 81.25C273.226 74.2581 281.216 70.7758 290.508 69.8112C302.945 68.2067 314.906 73.1392 323.862 81.5309L329.117 86.4979C334.568 91.6174 348.951 88.5852 361.699 99.0126C363.764 100.702 363.647 101.773 366.409 101.948L372.572 102.087C393.653 102.278 417.871 102.696 432.119 120.854C440.722 131.817 439.941 146.375 439.999 159.534L440.686 323.212C440.772 325.303 441.06 327.422 440.756 329.504L440.676 330C439.405 338.228 428.608 340.135 427.264 330.469C426.422 324.415 426.908 317.774 426.904 311.656L426.933 157.488C426.947 146.59 427.759 134.703 419.337 126.422C406.119 113.426 382.764 115.604 365.683 115.652L365.41 116.875C360.477 140.543 308.878 138.578 292.27 138.58C271.246 138.581 232.472 140.15 223.357 115.824L207.5 115.646C204.852 115.655 202.142 115.94 199.493 116.106C161.908 118.455 162.128 133.018 162.548 162.697L163.73 305.469ZM290.592 83.2269C276.432 85.4423 276.77 93.3952 266.666 99.4091C257.658 104.771 243 101.28 236.58 111.392L236.295 111.936C242.563 122.998 257.084 124.486 268.446 125.037L298.621 125.363C314.11 125.264 344.361 128.175 353.207 112.137C346.12 100.077 334.919 105.249 324.608 99.8302C313.253 93.8631 312.551 80.7908 290.592 83.2269Z"/>
	<path transform="scale(1.6 1.6)" d="M247.264 267.455C232.394 268.335 218.582 265.299 206.72 255.801C165.544 222.829 183.404 159.618 235.169 154.5C306.257 147.942 323.946 257.76 247.264 267.455ZM240.1 167.643C228.139 168.105 217.24 171.907 208.897 180.781C182.059 209.328 204.336 253.633 241.452 254.493C254.011 253.995 264.339 250.275 273.022 240.924C297.77 214.272 279.889 168.718 240.1 167.643Z"/>
	<path transform="scale(1.6 1.6)" d="M247.57 224.726L243.313 221.51C240.313 225.796 237.375 230.537 233.428 234.014C229.856 237.159 223.068 237.772 222.26 232.031C221.355 225.602 227.819 220.78 231.409 216.153L221.562 214.915C214.462 213.951 208.547 207.293 215.532 202.529C219.355 199.921 228.036 201.767 232.414 202.508C230.624 196.562 228.427 187.358 235.023 183.801C241.514 183.321 242.578 187.973 244.002 193.442L245.861 200.64C250.199 198.031 256.422 190.225 260.891 190.184C265.183 190.145 266.743 194.89 266.486 198.488C266.033 204.829 257.137 208.2 252.804 211.787C256.618 214.827 261.922 217.171 265.161 220.706C268.073 223.884 266.477 229.636 261.992 230.33C256.597 231.165 251.683 227.744 247.57 224.726Z"/>
	<path transform="scale(1.6 1.6)" d="M387.517 214.369L323.34 214.404C321.334 214.44 319.159 214.81 317.176 214.632C310.277 214.011 307.453 201.949 320.104 201.07L367.783 201.147C375.094 201.149 382.93 200.602 390.176 201.462C397.766 202.362 398.842 213.853 387.517 214.369Z"/>
	<path transform="scale(1.6 1.6)" d="M366.206 328.514C362.048 328.741 357.775 328.499 353.604 328.463L213.92 324.711C208.616 324.546 189.618 324.985 196.649 314.138C198.017 312.028 199.68 311.249 202.055 310.692C206.45 310.369 211.184 310.998 215.6 311.225L304.219 314.487C306.358 314.601 308.48 314.904 310.625 314.932L348.322 314.95C354.352 314.945 360.691 314.535 366.676 315.119C374.464 315.879 374.791 326.775 366.206 328.514Z"/>
	<path transform="scale(1.6 1.6)" d="M438.228 550.821L416.853 550.923C387.271 550.946 331.378 548.714 336.463 506.567C338.592 488.921 360.972 451.055 370.924 437.391L381.924 422.823C386.432 417.004 395.019 407.912 396.357 400.433C397.606 393.447 389.906 389.065 386.38 384.162C381.348 377.164 382.124 367.672 387.998 361.401C396.757 352.054 412.865 349.353 425.036 348.891C441.602 348.273 476.312 351.995 477.463 372.339C478.59 392.241 451.383 384.588 474.027 415.006L498.571 448.849C504.636 458.246 509.836 467.985 514.93 477.93L523.096 495.124C546.431 550.696 472.723 549.79 438.228 550.821ZM423.641 362.32C416.899 362.714 409.969 363.846 403.734 366.561C394.998 370.364 394.544 373.527 400.676 380.009C421.591 402.117 400.641 420.242 386.629 438.958L374.388 456.453C367.742 466.786 362.221 477.502 357.038 488.623C351.641 500.202 343.879 516.425 356.548 526.515C373.91 540.343 417.919 537.635 439.297 537.579C456.488 537.245 497.199 537.291 509.479 524.667C518.93 514.95 512.23 503.489 507.554 493.133C501.561 479.861 494.495 466.983 486.406 454.872L473.657 436.902C463.492 423.478 441.286 400.721 456.178 383.378C458.597 380.561 461.955 378.199 463.873 375.032L464.336 374.29C459.128 361.831 434.605 362.015 423.641 362.32Z"/>
	<path transform="scale(1.6 1.6)" d="M348.921 405.609C339.215 406.255 329.267 405.852 319.533 405.852L262.031 404.686L206.843 402.114C204.647 401.994 201.89 402.082 199.852 401.228C191.474 397.719 194.3 389.787 201.847 388.186C205.158 388.029 208.551 388.362 211.864 388.516L291.256 392.499L333.817 392.568C339.045 392.561 344.657 392.081 349.844 392.501C357.354 393.11 357.866 404.127 348.921 405.609Z"/>
	<path transform="scale(1.6 1.6)" d="M433.441 489.651C419.061 491.135 409.418 478.876 414.728 465.537C416.857 460.191 423.563 449.459 428.749 447.225C437.958 446.534 440.484 455.659 444.288 463.006C451.275 476.505 450.024 486.463 433.441 489.651Z"/>
	<path transform="scale(1.6 1.6)" d="M322.009 484.599C319.501 485.062 317.018 484.926 314.483 484.924L286.73 484.854L210.995 480.436C207.497 480.316 203.253 480.737 199.898 479.881L199.531 479.779C192.448 477.845 193.344 468.969 200.145 466.586C204.956 466.378 209.717 466.959 214.518 467.106L286.25 471.841L311.283 471.822C314.739 471.816 320.216 471.092 323.388 472.362C328.679 474.481 329.026 482.194 322.009 484.599Z"/>
</svg>
